<svg width="590" height="566" viewBox="0 0 590 566" fill="none" xmlns="http://www.w3.org/2000/svg">
<rect x="1.5" y="1.5" width="587" height="563" rx="98.5" stroke="#808080" stroke-width="3"/>
<path d="M100 253.5L260.105 172.54L348.779 221.82L490 133.5" stroke="#4361EE" stroke-width="2"/>
<rect x="100" y="340" width="48" height="65" rx="10" fill="#08D83F"/>
<rect x="157" y="289" width="48" height="116" rx="10" fill="#C7D0FA"/>
<rect x="214" y="323" width="48" height="82" rx="10" fill="#FF8811"/>
<rect x="271" y="254" width="48" height="151" rx="10" fill="#FF5353"/>
<rect x="328" y="304" width="48" height="101" rx="10" fill="#FFCC37"/>
<rect x="385" y="376" width="48" height="29" rx="10" fill="#C7D0FA"/>
<rect x="442" y="224" width="48" height="181" rx="10" fill="#4361EE"/>
<path d="M117.085 460.909H118.977L123.426 471.776H123.58L128.028 460.909H129.92V474H128.438V464.054H128.31L124.219 474H122.787L118.696 464.054H118.568V474H117.085V460.909Z" fill="black"/>
<path d="M175.869 462.315V460.909H185.688V462.315H181.571V474H179.986V462.315H175.869Z" fill="black"/>
<path d="M237.341 469.909H239.08L240.537 471.827L240.92 472.338L243.094 475.227H241.355L239.923 473.31L239.565 472.824L237.341 469.909ZM243.631 467.455C243.631 468.835 243.381 470.028 242.883 471.034C242.384 472.04 241.7 472.815 240.831 473.361C239.962 473.906 238.969 474.179 237.852 474.179C236.736 474.179 235.743 473.906 234.874 473.361C234.004 472.815 233.32 472.04 232.822 471.034C232.323 470.028 232.074 468.835 232.074 467.455C232.074 466.074 232.323 464.881 232.822 463.875C233.32 462.869 234.004 462.094 234.874 461.548C235.743 461.003 236.736 460.73 237.852 460.73C238.969 460.73 239.962 461.003 240.831 461.548C241.7 462.094 242.384 462.869 242.883 463.875C243.381 464.881 243.631 466.074 243.631 467.455ZM242.097 467.455C242.097 466.321 241.907 465.364 241.528 464.585C241.153 463.805 240.643 463.214 240 462.814C239.361 462.413 238.645 462.213 237.852 462.213C237.06 462.213 236.342 462.413 235.698 462.814C235.059 463.214 234.55 463.805 234.17 464.585C233.795 465.364 233.608 466.321 233.608 467.455C233.608 468.588 233.795 469.545 234.17 470.325C234.55 471.104 235.059 471.695 235.698 472.095C236.342 472.496 237.06 472.696 237.852 472.696C238.645 472.696 239.361 472.496 240 472.095C240.643 471.695 241.153 471.104 241.528 470.325C241.907 469.545 242.097 468.588 242.097 467.455Z" fill="black"/>
<path d="M289.869 462.315V460.909H299.688V462.315H295.571V474H293.986V462.315H289.869Z" fill="black"/>
<path d="M348.085 474V460.909H355.935V462.315H349.67V466.739H355.347V468.145H349.67V474H348.085Z" fill="black"/>
<path d="M411.744 464.182C411.668 463.534 411.357 463.031 410.811 462.673C410.266 462.315 409.597 462.136 408.804 462.136C408.224 462.136 407.717 462.23 407.283 462.418C406.852 462.605 406.516 462.863 406.273 463.191C406.034 463.519 405.915 463.892 405.915 464.31C405.915 464.659 405.998 464.96 406.164 465.211C406.335 465.458 406.552 465.665 406.816 465.831C407.08 465.993 407.357 466.127 407.647 466.234C407.937 466.336 408.203 466.419 408.446 466.483L409.776 466.841C410.116 466.93 410.496 467.054 410.913 467.212C411.335 467.369 411.738 467.585 412.121 467.857C412.509 468.126 412.829 468.471 413.08 468.893C413.332 469.315 413.457 469.832 413.457 470.446C413.457 471.153 413.272 471.793 412.901 472.364C412.535 472.935 411.998 473.388 411.29 473.725C410.587 474.062 409.733 474.23 408.727 474.23C407.79 474.23 406.978 474.079 406.292 473.776C405.61 473.474 405.073 473.052 404.681 472.511C404.293 471.969 404.074 471.341 404.023 470.625H405.659C405.702 471.119 405.868 471.528 406.158 471.852C406.452 472.172 406.822 472.411 407.27 472.568C407.722 472.722 408.207 472.798 408.727 472.798C409.332 472.798 409.876 472.7 410.357 472.504C410.839 472.304 411.22 472.027 411.501 471.673C411.783 471.315 411.923 470.898 411.923 470.42C411.923 469.986 411.802 469.632 411.559 469.359C411.316 469.087 410.996 468.865 410.6 468.695C410.204 468.524 409.776 468.375 409.315 468.247L407.705 467.787C406.682 467.493 405.872 467.073 405.276 466.528C404.679 465.982 404.381 465.268 404.381 464.386C404.381 463.653 404.579 463.014 404.975 462.469C405.376 461.919 405.913 461.493 406.586 461.19C407.263 460.884 408.02 460.73 408.855 460.73C409.699 460.73 410.449 460.881 411.105 461.184C411.761 461.482 412.281 461.891 412.665 462.411C413.053 462.931 413.257 463.521 413.278 464.182H411.744Z" fill="black"/>
<path d="M468.744 464.182C468.668 463.534 468.357 463.031 467.811 462.673C467.266 462.315 466.597 462.136 465.804 462.136C465.224 462.136 464.717 462.23 464.283 462.418C463.852 462.605 463.516 462.863 463.273 463.191C463.034 463.519 462.915 463.892 462.915 464.31C462.915 464.659 462.998 464.96 463.164 465.211C463.335 465.458 463.552 465.665 463.816 465.831C464.08 465.993 464.357 466.127 464.647 466.234C464.937 466.336 465.203 466.419 465.446 466.483L466.776 466.841C467.116 466.93 467.496 467.054 467.913 467.212C468.335 467.369 468.738 467.585 469.121 467.857C469.509 468.126 469.829 468.471 470.08 468.893C470.332 469.315 470.457 469.832 470.457 470.446C470.457 471.153 470.272 471.793 469.901 472.364C469.535 472.935 468.998 473.388 468.29 473.725C467.587 474.062 466.733 474.23 465.727 474.23C464.79 474.23 463.978 474.079 463.292 473.776C462.61 473.474 462.073 473.052 461.681 472.511C461.293 471.969 461.074 471.341 461.023 470.625H462.659C462.702 471.119 462.868 471.528 463.158 471.852C463.452 472.172 463.822 472.411 464.27 472.568C464.722 472.722 465.207 472.798 465.727 472.798C466.332 472.798 466.876 472.7 467.357 472.504C467.839 472.304 468.22 472.027 468.501 471.673C468.783 471.315 468.923 470.898 468.923 470.42C468.923 469.986 468.802 469.632 468.559 469.359C468.316 469.087 467.996 468.865 467.6 468.695C467.204 468.524 466.776 468.375 466.315 468.247L464.705 467.787C463.682 467.493 462.872 467.073 462.276 466.528C461.679 465.982 461.381 465.268 461.381 464.386C461.381 463.653 461.579 463.014 461.975 462.469C462.376 461.919 462.913 461.493 463.586 461.19C464.263 460.884 465.02 460.73 465.855 460.73C466.699 460.73 467.449 460.881 468.105 461.184C468.761 461.482 469.281 461.891 469.665 462.411C470.053 462.931 470.257 463.521 470.278 464.182H468.744Z" fill="black"/>
</svg>
