<svg width="150" height="150" viewBox="0 0 150 150" fill="none" xmlns="http://www.w3.org/2000/svg">
<path opacity="0.4" d="M75.75 79.875C75.3125 79.8125 74.75 79.8125 74.25 79.875C63.25 79.5 54.5 70.5 54.5 59.4375C54.5 48.125 63.625 38.9375 75 38.9375C86.3125 38.9375 95.5 48.125 95.5 59.4375C95.4375 70.5 86.75 79.5 75.75 79.875Z" stroke="#292D32" stroke-width="4" stroke-linecap="round" stroke-linejoin="round"/>
<path opacity="0.34" d="M117.125 121.125C106 131.312 91.25 137.5 75 137.5C58.75 137.5 44 131.312 32.875 121.125C33.5 115.25 37.25 109.5 43.9375 105C61.0625 93.625 89.0625 93.625 106.062 105C112.75 109.5 116.5 115.25 117.125 121.125Z" stroke="#292D32" stroke-width="4" stroke-linecap="round" stroke-linejoin="round"/>
<path d="M75 137.5C109.518 137.5 137.5 109.518 137.5 75C137.5 40.4822 109.518 12.5 75 12.5C40.4822 12.5 12.5 40.4822 12.5 75C12.5 109.518 40.4822 137.5 75 137.5Z" stroke="#292D32" stroke-width="4" stroke-linecap="round" stroke-linejoin="round"/>
</svg>
